<!--?xml version="1.0" encoding="utf-8"?-->
<!-- Generator: Adobe Illustrator 15.0.0, SVG Export Plug-In . SVG Version: 6.00 Build 0)  -->

<svg xmlns="http://www.w3.org/2000/svg" xmlns:xlink="http://www.w3.org/1999/xlink" width="500px" height="500px" viewBox="0 0 500 500">
<path fill="#010101" d="M107.984,138.293c0,6.025,1.435,11.708,3.919,16.777c16.557-18.843,36.888-34.29,59.824-45.111
	c-6.773-6.111-15.712-9.863-25.547-9.863C125.084,100.096,107.984,117.196,107.984,138.293z" id="path-0"></path>
<path fill="#010101" d="M249.847,446.87c94.3,0,170.744-76.444,170.744-170.748c0-84.443-61.321-154.521-141.846-168.256v-6.549
	v-6.562V75.861h14.807c4.9,0,8.879-5.244,8.879-11.701c0-6.464-3.979-11.701-8.879-11.701h-87.404c-4.9,0-8.879,5.237-8.879,11.701
	s3.979,11.701,8.879,11.701h14.807v18.894v6.562v6.549c-14.375,2.453-28.135,6.704-41.044,12.508
	c-23.352,10.5-43.904,26.083-60.269,45.357C94.373,195.5,79.108,234.022,79.108,276.122
	C79.102,370.426,155.546,446.87,249.847,446.87z" id="path-1" style="position: relative;"></path>
<path fill="#FFFFFF" d="M151.104,176.14c8.948-8.838,19.083-16.478,30.131-22.677c20.31-11.405,43.706-17.938,68.612-17.938
	c77.532,0,140.606,63.075,140.606,140.61c0,77.529-63.074,140.604-140.606,140.604s-140.607-63.088-140.607-140.617
	C109.239,237.042,125.279,201.649,151.104,176.14z" id="path-2" style="position: relative;"></path>
<path fill="#010101" d="M144.671,336.473c3.402,5.916,7.296,11.528,11.623,16.769c22.236,26.94,55.892,44.118,93.553,44.118
	c66.956,0,121.234-54.277,121.234-121.237c0-66.956-54.278-121.234-121.234-121.234c-37.661,0-71.317,17.178-93.553,44.118
	c-4.326,5.237-8.214,10.85-11.623,16.771c-10.216,17.771-16.059,38.374-16.059,60.344
	C128.612,298.094,134.455,318.702,144.671,336.473z" id="path-3" style="position: relative;"></path>
<path fill="#FFFFFF" d="M148.578,251.56c0-3.563,2.895-6.458,6.458-6.458h186.191c3.563,0,6.458,2.895,6.458,6.458v50.582
	c0,3.563-2.895,6.458-6.458,6.458H155.035c-3.563,0-6.458-2.895-6.458-6.458V251.56z" id="path-4" style="position: relative;"></path>
<text transform="matrix(1 0 0 1 159.4292 293.3398)" fill="#010101" font-family="'MyriadPro-Regular'" font-size="52.4986" id="text-0" style="position: relative;">00:00:00</text>
</svg>
